<?xml version="1.0" encoding="utf-8"?>
<!-- Generator: Adobe Illustrator 16.0.0, SVG Export Plug-In . SVG Version: 6.00 Build 0)  -->
<!DOCTYPE svg PUBLIC "-//W3C//DTD SVG 1.1//EN" "http://www.w3.org/Graphics/SVG/1.1/DTD/svg11.dtd">
<svg version="1.1" id="Layer_1" xmlns="http://www.w3.org/2000/svg" xmlns:xlink="http://www.w3.org/1999/xlink" x="0px" y="0px"
	 width="419.529px" height="595.281px" viewBox="0 0 419.529 595.281" enable-background="new 0 0 419.529 595.281"
	 xml:space="preserve">
<g>
	<path id="LinkedIn" d="M406.983,311.267v145.826h-84.54V321.033c0-34.178-12.228-57.503-42.829-57.503
		c-23.359,0-37.262,15.72-43.377,30.925c-2.23,5.436-2.804,13.004-2.804,20.613v142.025h-84.57c0,0,1.14-230.44,0-254.315h84.561
		v36.048c-0.172,0.27-0.396,0.561-0.556,0.822h0.556v-0.822c11.235-17.303,31.299-42.022,76.207-42.022
		C365.271,196.803,406.983,233.153,406.983,311.267z M60.4,80.187c-28.93,0-47.853,18.977-47.853,43.93
		c0,24.412,18.375,43.964,46.731,43.964h0.565c29.492,0,47.833-19.548,47.833-43.964C107.119,99.164,89.335,80.187,60.4,80.187z
		 M17.569,457.094h84.537V202.779H17.569V457.094z"/>
</g>
</svg>
