<?xml version="1.0" encoding="utf-8"?>
<!-- Generator: Adobe Illustrator 16.0.0, SVG Export Plug-In . SVG Version: 6.00 Build 0)  -->
<!DOCTYPE svg PUBLIC "-//W3C//DTD SVG 1.1//EN" "http://www.w3.org/Graphics/SVG/1.1/DTD/svg11.dtd">
<svg version="1.1" id="Capa_1" xmlns="http://www.w3.org/2000/svg" xmlns:xlink="http://www.w3.org/1999/xlink" x="0px" y="0px"
	 width="419.527px" height="595.275px" viewBox="26.351 -61.523 419.527 595.275"
	 enable-background="new 26.351 -61.523 419.527 595.275" xml:space="preserve">
<g>
	<g>
		<path d="M168.681,122.753c-4.308-7.461-9.778-11.188-16.404-11.188H92.864c-3.812,0-6.462,1.243-7.955,3.728
			c-1.821,2.485-1.739,5.554,0.251,9.198l40.022,69.356c0.163,0.17,0.163,0.252,0,0.252L62.288,305.463
			c-1.657,3.16-1.657,6.141,0,8.959c1.661,2.819,4.227,4.225,7.708,4.225h59.412c6.296,0,11.683-3.812,16.156-11.435
			c40.934-72.584,62.232-110.371,63.889-113.355L168.681,122.753z"/>
		<path d="M409.816,43.457c1.825-3.479,1.825-6.545,0-9.195c-1.494-2.482-4.058-3.729-7.704-3.732h-59.91
			c-6.466,0-11.768,3.729-15.91,11.188c-85.022,150.813-129.02,228.868-132.004,234.171l84.272,154.624
			c3.975,7.457,9.446,11.189,16.405,11.189h59.418c3.646,0,6.292-1.246,7.953-3.732c1.656-2.815,1.575-5.879-0.25-9.199
			l-83.526-152.88v-0.247L409.816,43.457z"/>
	</g>
</g>
</svg>
